<svg width="250" height="80" viewBox="0 0 250 80" fill="none" xmlns="http://www.w3.org/2000/svg">
<g filter="url(#filter0_b_0_1)">
<rect x="0.5" y="0.5" width="249" height="79" rx="39.5" stroke="white" stroke-opacity="0.292941"/>
</g>
<path fill-rule="evenodd" clip-rule="evenodd" d="M105.312 47.8133L105.002 46.931C104.796 46.3429 104.559 45.6653 104.292 44.8984C104.025 44.1314 103.788 43.4539 103.582 42.8657L103.273 41.9835H95.2008L93.1617 47.8133H90.5039L97.9852 27.4442H100.488L107.97 47.8133H105.312ZM99.1945 30.5356L98.8641 31.4743C98.6438 32.1001 98.3742 32.8741 98.0555 33.7963C97.7367 34.7186 97.4156 35.6408 97.0922 36.563C96.7688 37.4853 96.4969 38.2593 96.2766 38.8851L95.9461 39.8238H102.527L99.2789 30.5356H99.1945ZM117.616 32.4553C119.548 32.4553 121.113 33.1658 122.313 34.5868C123.513 36.0078 124.113 37.8805 124.113 40.2049C124.113 42.5293 123.518 44.402 122.327 45.823C121.137 47.2439 119.585 47.9544 117.673 47.9544C116.595 47.9544 115.638 47.7262 114.804 47.2698C113.97 46.8134 113.313 46.1711 112.835 45.343H112.779V52.8949H110.332V32.5965H112.652V35.0668H112.709C113.149 34.2763 113.815 33.6434 114.706 33.1682C115.596 32.693 116.566 32.4553 117.616 32.4553ZM117.166 45.7665C118.507 45.7665 119.583 45.2607 120.394 44.249C121.205 43.2374 121.61 41.8894 121.61 40.2049C121.61 38.5204 121.205 37.1724 120.394 36.1607C119.583 35.1491 118.507 34.6433 117.166 34.6433C115.863 34.6433 114.804 35.1561 113.988 36.1819C113.173 37.2076 112.765 38.5486 112.765 40.2049C112.765 41.8611 113.173 43.2021 113.988 44.2279C114.804 45.2536 115.863 45.7665 117.166 45.7665ZM134.323 32.4553C136.254 32.4553 137.82 33.1658 139.02 34.5868C140.22 36.0078 140.82 37.8805 140.82 40.2049C140.82 42.5293 140.224 44.402 139.034 45.823C137.843 47.2439 136.292 47.9544 134.379 47.9544C133.301 47.9544 132.345 47.7262 131.51 47.2698C130.676 46.8134 130.02 46.1711 129.541 45.343H129.485V52.8949H127.038V32.5965H129.359V35.0668H129.415C129.856 34.2763 130.521 33.6434 131.412 33.1682C132.302 32.693 133.273 32.4553 134.323 32.4553ZM133.873 45.7665C135.213 45.7665 136.289 45.2607 137.1 44.249C137.911 43.2374 138.316 41.8894 138.316 40.2049C138.316 38.5204 137.911 37.1724 137.1 36.1607C136.289 35.1491 135.213 34.6433 133.873 34.6433C132.57 34.6433 131.51 35.1561 130.695 36.1819C129.879 37.2076 129.471 38.5486 129.471 40.2049C129.471 41.8611 129.879 43.2021 130.695 44.2279C131.51 45.2536 132.57 45.7665 133.873 45.7665ZM150.326 42.2093C150.448 44.0067 151.195 45.4465 152.569 46.5287C153.942 47.611 155.702 48.1521 157.849 48.1521C160.184 48.1521 162.033 47.6086 163.397 46.5217C164.761 45.4348 165.443 43.9597 165.443 42.0964C165.443 40.6378 164.984 39.4709 164.065 38.5957C163.146 37.7205 161.637 37.0194 159.537 36.4924L157.413 35.9278C156.035 35.5702 155.044 35.1444 154.439 34.6503C153.834 34.1563 153.532 33.5234 153.532 32.7518C153.532 31.7543 153.947 30.945 154.777 30.3239C155.606 29.7028 156.677 29.3922 157.99 29.3922C159.312 29.3922 160.385 29.7075 161.21 30.338C162.035 30.9685 162.504 31.8295 162.617 32.9212H165.148C165.092 31.2084 164.402 29.811 163.081 28.7288C161.759 27.6466 160.09 27.1055 158.074 27.1055C155.965 27.1055 154.242 27.6419 152.906 28.7147C151.57 29.7875 150.902 31.1708 150.902 32.8647C150.902 35.5279 152.702 37.3206 156.302 38.2428L158.904 38.9204C160.273 39.2685 161.269 39.7202 161.892 40.2755C162.516 40.8307 162.827 41.5412 162.827 42.4069C162.827 43.4045 162.38 44.2302 161.485 44.8843C160.589 45.5383 159.457 45.8653 158.088 45.8653C156.645 45.8653 155.445 45.5312 154.488 44.8631C153.532 44.1949 152.993 43.3104 152.871 42.2093H150.326ZM169.24 29.1664V32.5965H167.131V34.6292H169.24V43.8609C169.24 45.3195 169.533 46.3617 170.119 46.9875C170.705 47.6133 171.682 47.9262 173.051 47.9262C173.342 47.9262 173.639 47.9144 173.944 47.8909C174.249 47.8674 174.476 47.8368 174.626 47.7992V45.7241C174.542 45.7336 174.382 45.7477 174.148 45.7665C173.913 45.7853 173.721 45.7947 173.571 45.7947C172.924 45.7947 172.449 45.63 172.144 45.3007C171.839 44.9713 171.687 44.4584 171.687 43.7621V34.6292H174.64V32.5965H171.687V29.1664H169.24ZM183.949 47.9544C181.821 47.9544 180.124 47.251 178.859 45.8441C177.593 44.4373 176.96 42.5575 176.96 40.2049C176.96 37.8428 177.593 35.9608 178.859 34.5586C180.124 33.1564 181.821 32.4553 183.949 32.4553C186.078 32.4553 187.774 33.1564 189.04 34.5586C190.306 35.9608 190.938 37.8428 190.938 40.2049C190.938 42.5575 190.306 44.4373 189.04 45.8441C187.774 47.251 186.078 47.9544 183.949 47.9544ZM183.949 45.7665C185.365 45.7665 186.469 45.2748 187.261 44.2914C188.053 43.308 188.449 41.9458 188.449 40.2049C188.449 38.4545 188.053 37.09 187.261 36.1113C186.469 35.1326 185.365 34.6433 183.949 34.6433C182.534 34.6433 181.43 35.135 180.638 36.1184C179.845 37.1018 179.449 38.4639 179.449 40.2049C179.449 41.9458 179.848 43.308 180.645 44.2914C181.442 45.2748 182.543 45.7665 183.949 45.7665ZM193.863 47.8133H196.31V38.3981C196.31 37.3253 196.608 36.4595 197.203 35.8008C197.799 35.142 198.588 34.8127 199.573 34.8127C199.873 34.8127 200.147 34.8268 200.396 34.855C200.644 34.8832 200.815 34.9162 200.909 34.9538V32.54C200.806 32.5212 200.665 32.5024 200.487 32.4836C200.309 32.4647 200.112 32.4553 199.896 32.4553C199.015 32.4553 198.239 32.6906 197.569 33.1611C196.899 33.6317 196.451 34.2669 196.226 35.0668H196.17V32.5965H193.863V47.8133ZM209.388 34.615C208.198 34.615 207.211 35.0103 206.428 35.8008C205.646 36.5913 205.212 37.6311 205.128 38.9204H213.467C213.438 37.6311 213.052 36.5913 212.306 35.8008C211.561 35.0103 210.588 34.615 209.388 34.615ZM213.41 43.4656H215.829C215.623 44.7737 214.929 45.8488 213.748 46.6911C212.567 47.5333 211.165 47.9544 209.543 47.9544C207.415 47.9544 205.725 47.2604 204.474 45.8724C203.222 44.4843 202.596 42.614 202.596 40.2613C202.596 37.8993 203.22 36.0078 204.467 34.5868C205.713 33.1658 207.368 32.4553 209.431 32.4553C211.456 32.4553 213.059 33.1235 214.24 34.4598C215.421 35.7961 216.012 37.617 216.012 39.9226V40.8824H205.128V41.0236C205.128 42.4728 205.535 43.6303 206.351 44.4961C207.167 45.3618 208.249 45.7947 209.599 45.7947C210.546 45.7947 211.364 45.5853 212.053 45.1666C212.742 44.7478 213.195 44.1808 213.41 43.4656Z" fill="white"/>
<path fill-rule="evenodd" clip-rule="evenodd" d="M61.3143 16.0527C58.9894 16.1502 56.1723 17.6013 54.505 19.5521C53.0062 21.2846 51.6979 24.0495 52.0506 26.7006C54.6463 26.9037 57.2912 25.3832 58.907 23.4314C60.5195 21.4761 61.6113 18.7625 61.3143 16.0527ZM60.6571 62.1911C63.8072 62.1324 65.8024 59.3333 67.7312 56.5169C69.8445 53.4322 70.7778 50.4414 70.9171 49.995C70.9248 49.9701 70.9301 49.9532 70.933 49.9445C70.9316 49.9439 70.9277 49.9423 70.9214 49.9398C70.6192 49.817 64.7878 47.4488 64.7299 40.6021C64.6729 34.9477 69.1869 32.1353 69.6826 31.8265C69.6997 31.8158 69.712 31.8081 69.7192 31.8034C67.003 27.8348 62.7737 27.2907 61.2667 27.2285C59.0655 27.0062 56.93 27.8468 55.1851 28.5337C54.0763 28.9702 53.1253 29.3445 52.4154 29.3445C51.6253 29.3445 50.6482 28.9571 49.5516 28.5223C48.1164 27.9532 46.4765 27.3029 44.7835 27.334C40.8621 27.3927 37.2434 29.6142 35.2239 33.1253C31.1457 40.1953 34.1781 50.6717 38.151 56.4042C40.0957 59.2079 42.4081 62.3634 45.4492 62.2498C46.807 62.1954 47.7733 61.7843 48.7727 61.3591C49.9277 60.8677 51.1269 60.3575 53.0255 60.3575C54.8337 60.3575 55.9773 60.8519 57.0773 61.3275C58.1294 61.7823 59.1415 62.2198 60.6571 62.1911Z" fill="white"/>
<defs>
<filter id="filter0_b_0_1" x="-27.1828" y="-27.1828" width="304.366" height="134.366" filterUnits="userSpaceOnUse" color-interpolation-filters="sRGB">
<feFlood flood-opacity="0" result="BackgroundImageFix"/>
<feGaussianBlur in="BackgroundImageFix" stdDeviation="13.5914"/>
<feComposite in2="SourceAlpha" operator="in" result="effect1_backgroundBlur_0_1"/>
<feBlend mode="normal" in="SourceGraphic" in2="effect1_backgroundBlur_0_1" result="shape"/>
</filter>
</defs>
</svg>
