<svg width="250" height="80" viewBox="0 0 250 80" fill="none" xmlns="http://www.w3.org/2000/svg">
<g filter="url(#filter0_b_0_1)">
<rect x="0.5" y="0.5" width="249" height="79" rx="39.5" stroke="white" stroke-opacity="0.292941"/>
</g>
<path fill-rule="evenodd" clip-rule="evenodd" d="M186.353 40.8451C186.353 41.807 186.238 42.686 186.01 43.4824C185.782 44.2787 185.447 44.9626 185.007 45.5342C184.567 46.1058 184.029 46.5513 183.394 46.8706C182.758 47.1899 182.034 47.3496 181.22 47.3496C180.256 47.3496 179.424 47.186 178.722 46.8588C178.02 46.5316 177.441 46.0802 176.984 45.5047V52.0328H175.502V34.317H176.884L176.959 36.1264C177.416 35.4878 177.993 34.9871 178.691 34.6244C179.389 34.2618 180.219 34.0804 181.183 34.0804C182.005 34.0804 182.738 34.2342 183.381 34.5417C184.025 34.8491 184.567 35.2867 185.007 35.8544C185.447 36.422 185.782 37.106 186.01 37.9062C186.238 38.7065 186.353 39.6033 186.353 40.5967V40.8451ZM184.858 40.5967C184.858 39.8556 184.777 39.1618 184.615 38.5153C184.453 37.8688 184.208 37.309 183.88 36.836C183.552 36.3629 183.134 35.9904 182.628 35.7184C182.121 35.4464 181.527 35.3104 180.846 35.3104C180.306 35.3104 179.829 35.3774 179.413 35.5114C178.998 35.6455 178.635 35.8248 178.323 36.0495C178.012 36.2742 177.746 36.5344 177.526 36.8301C177.306 37.1257 177.125 37.4352 176.984 37.7584V43.8963C177.142 44.2195 177.339 44.5191 177.576 44.7951C177.813 45.071 178.091 45.3095 178.411 45.5106C178.73 45.7116 179.094 45.8693 179.501 45.9836C179.908 46.0979 180.364 46.1551 180.871 46.1551C181.552 46.1551 182.142 46.0191 182.64 45.7471C183.138 45.4751 183.552 45.1006 183.88 44.6236C184.208 44.1466 184.453 43.5849 184.615 42.9383C184.777 42.2918 184.858 41.5941 184.858 40.8451V40.5967ZM191.324 47.113H189.829V28.9478H191.324V47.113ZM203.882 47.113C203.798 46.8923 203.734 46.6222 203.688 46.3029C203.643 45.9836 203.612 45.6584 203.595 45.3273C203.371 45.6032 203.105 45.8634 202.798 46.1078C202.49 46.3522 202.146 46.5651 201.764 46.7464C201.382 46.9278 200.962 47.0736 200.505 47.184C200.049 47.2944 199.554 47.3496 199.023 47.3496C198.367 47.3496 197.771 47.2589 197.235 47.0776C196.699 46.8962 196.243 46.642 195.865 46.3148C195.487 45.9876 195.194 45.6032 194.986 45.1617C194.779 44.7202 194.675 44.2392 194.675 43.7189C194.675 43.096 194.816 42.5343 195.098 42.0336C195.381 41.533 195.788 41.1072 196.319 40.7564C196.851 40.4055 197.497 40.1375 198.257 39.9522C199.017 39.7669 199.87 39.6743 200.817 39.6743H203.583V38.2196C203.583 37.3051 203.286 36.5856 202.692 36.0613C202.098 35.537 201.232 35.2749 200.094 35.2749C199.571 35.2749 199.089 35.3419 198.649 35.4759C198.209 35.61 197.829 35.7952 197.509 36.0318C197.189 36.2683 196.94 36.5423 196.762 36.8537C196.583 37.1651 196.494 37.4982 196.494 37.853L194.999 37.8412C194.999 37.3603 195.123 36.8951 195.373 36.4457C195.622 35.9963 195.973 35.5962 196.425 35.2453C196.878 34.8945 197.422 34.6126 198.057 34.3997C198.693 34.1869 199.397 34.0804 200.169 34.0804C200.883 34.0804 201.541 34.1672 202.144 34.3406C202.746 34.5141 203.263 34.7742 203.695 35.1211C204.127 35.4681 204.463 35.9017 204.704 36.422C204.945 36.9424 205.065 37.5495 205.065 38.2433V44.4403C205.065 44.6611 205.073 44.8897 205.09 45.1262C205.107 45.3627 205.134 45.5914 205.171 45.8121C205.208 46.0329 205.252 46.2438 205.302 46.4449C205.352 46.6459 205.41 46.8213 205.476 46.9711V47.113H203.882ZM199.197 46.096C199.737 46.096 200.237 46.0309 200.698 45.9008C201.159 45.7708 201.577 45.5914 201.95 45.3627C202.324 45.1341 202.648 44.868 202.922 44.5645C203.196 44.2609 203.416 43.9318 203.583 43.577V40.7623H201.029C200.264 40.7623 199.581 40.8273 198.979 40.9574C198.377 41.0875 197.868 41.2748 197.453 41.5192C197.038 41.7636 196.72 42.0612 196.5 42.4121C196.28 42.7629 196.17 43.1591 196.17 43.6006C196.17 43.9475 196.24 44.2727 196.382 44.5763C196.523 44.8798 196.724 45.144 196.986 45.3687C197.247 45.5934 197.565 45.7708 197.939 45.9008C198.313 46.0309 198.732 46.096 199.197 46.096ZM213.312 45.0789L217.249 34.317H218.856L213.15 49.159C213.034 49.4507 212.887 49.7779 212.708 50.1406C212.53 50.5033 212.297 50.8423 212.011 51.1576C211.724 51.473 211.367 51.7391 210.939 51.9559C210.511 52.1727 209.99 52.2811 209.376 52.2811C209.293 52.2811 209.197 52.2752 209.089 52.2634C208.981 52.2516 208.873 52.2378 208.765 52.222C208.657 52.2062 208.555 52.1885 208.46 52.1688C208.364 52.1491 208.288 52.1313 208.229 52.1156L208.217 50.9448C208.317 50.9605 208.452 50.9763 208.622 50.9921C208.792 51.0078 208.915 51.0157 208.989 51.0157C209.388 51.0157 209.741 50.9665 210.048 50.8679C210.356 50.7693 210.624 50.6235 210.852 50.4303C211.08 50.2372 211.282 49.9947 211.456 49.703C211.631 49.4113 211.788 49.0762 211.93 48.6978L212.577 47.0066L207.494 34.317H209.126L213.312 45.0789Z" fill="white"/>
<path fill-rule="evenodd" clip-rule="evenodd" d="M31.3936 20.9289V59.1512C31.3936 60.4816 32.1736 61.6319 33.3067 62.1807L55.7367 40.0335L33.3157 17.895C32.1778 18.4421 31.3936 19.5951 31.3936 20.9289ZM38.5533 60.7521L62.8964 47.1569L57.7521 42.1807L38.5533 60.7521ZM70.2296 38.0347C70.9945 38.6608 71.488 39.6473 71.488 40.7569C71.488 41.8499 71.0095 42.8232 70.2642 43.4504L65.3787 46.4664L60.0325 40.7503L65.3751 35.0378L70.2296 38.0347ZM62.8964 32.9188L38.5533 19.3235L57.7521 37.895L62.8964 32.9188Z" fill="white"/>
<path fill-rule="evenodd" clip-rule="evenodd" d="M119.535 48.1347C122.9 48.1347 125.642 45.55 125.642 42.0424C125.642 38.5101 122.9 35.9502 119.535 35.9502C116.171 35.9502 113.429 38.5101 113.429 42.0424C113.429 45.55 116.171 48.1347 119.535 48.1347ZM119.535 38.3508C121.38 38.3508 122.969 39.8506 122.969 42.0424C122.969 44.2096 121.38 45.7341 119.535 45.7341C117.691 45.7341 116.102 44.2124 116.102 42.0424C116.102 39.8506 117.691 38.3508 119.535 38.3508Z" fill="white"/>
<path fill-rule="evenodd" clip-rule="evenodd" d="M133.105 48.1347C136.47 48.1347 139.212 45.55 139.212 42.0424C139.212 38.5101 136.47 35.9502 133.105 35.9502C129.74 35.9502 126.998 38.5129 126.998 42.0424C126.998 45.55 129.74 48.1347 133.105 48.1347ZM133.105 38.3508C134.949 38.3508 136.539 39.8506 136.539 42.0424C136.539 44.2096 134.949 45.7341 133.105 45.7341C131.261 45.7341 129.672 44.2124 129.672 42.0424C129.672 39.8506 131.261 38.3508 133.105 38.3508Z" fill="white"/>
<path fill-rule="evenodd" clip-rule="evenodd" d="M152.782 47.2286V36.3201H150.125V37.3093H150.028C149.399 36.5941 148.192 35.9502 146.673 35.9502C143.487 35.9502 140.569 38.6191 140.569 42.0497C140.569 45.4557 143.487 48.1027 146.673 48.1027C148.195 48.1027 149.402 47.4587 150.028 46.7216H150.125V47.5957C150.125 49.9221 148.824 51.1579 146.725 51.1579C145.013 51.1579 143.95 49.9906 143.516 49.0014L141.08 49.9687C141.781 51.5799 143.64 53.55 146.727 53.55C150.008 53.55 152.782 51.7169 152.782 47.2286ZM146.923 38.3451C148.827 38.3451 150.324 39.9097 150.324 42.0497C150.324 44.1678 148.827 45.7105 146.923 45.7105C144.993 45.7105 143.375 44.1678 143.375 42.0497C143.375 39.9097 144.993 38.3451 146.923 38.3451Z" fill="white"/>
<path d="M156.853 30.5356V46.7816H154.139V30.5356H156.853Z" fill="white"/>
<path fill-rule="evenodd" clip-rule="evenodd" d="M168.955 45.4347L166.949 44.0503C166.28 45.0666 165.367 45.7368 164.051 45.7368C162.738 45.7368 161.801 45.1133 161.198 43.891L169.067 40.518L168.799 39.8258C168.31 38.4662 166.816 35.9502 163.762 35.9502C160.729 35.9502 158.21 38.4195 158.21 42.0424C158.21 45.4594 160.707 48.1347 164.051 48.1347C166.747 48.1347 168.308 46.4262 168.955 45.4347ZM166.033 39.5979L160.774 41.8584C160.707 39.5072 162.536 38.3069 163.849 38.3069C164.874 38.3069 165.744 38.837 166.033 39.5979Z" fill="white"/>
<path d="M103.612 39.6423V37.2379H111.948C112.029 37.657 112.071 38.1527 112.071 38.6892C112.071 40.4932 111.564 42.7238 109.929 44.3131C108.339 45.9229 106.307 46.7814 103.615 46.7814C98.6254 46.7814 94.4299 42.8311 94.4299 37.9815C94.4299 33.1318 98.6254 29.1816 103.615 29.1816C106.375 29.1816 108.341 30.2343 109.819 31.6064L108.073 33.303C107.014 32.3372 105.578 31.5859 103.612 31.5859C99.9687 31.5859 97.1191 34.44 97.1191 37.9815C97.1191 41.5229 99.9687 44.377 103.612 44.377C105.975 44.377 107.321 43.4546 108.183 42.6165C108.883 41.9368 109.343 40.9659 109.524 39.6398L103.612 39.6423Z" fill="white"/>
<defs>
<filter id="filter0_b_0_1" x="-27.1828" y="-27.1828" width="304.366" height="134.366" filterUnits="userSpaceOnUse" color-interpolation-filters="sRGB">
<feFlood flood-opacity="0" result="BackgroundImageFix"/>
<feGaussianBlur in="BackgroundImageFix" stdDeviation="13.5914"/>
<feComposite in2="SourceAlpha" operator="in" result="effect1_backgroundBlur_0_1"/>
<feBlend mode="normal" in="SourceGraphic" in2="effect1_backgroundBlur_0_1" result="shape"/>
</filter>
</defs>
</svg>
